<svg xmlns:xlink="http://www.w3.org/1999/xlink" xmlns="http://www.w3.org/2000/svg" version="1.1" width="300" height="300" viewBox="0 0 500 500"><rect x="0" y="0" width="500" height="500" fill="#ffffff"/><g transform="scale(16.129)"><g transform="translate(1,1)"><g><g transform="translate(3.5,3.5)"><path fill-rule="evenodd" d="M-3.5 -3.5L3.5 -3.5L3.5 3.5L-3.5 3.5ZM-2.5 -2.5L-2.5 2.5L2.5 2.5L2.5 -2.5Z" fill="#000000"/><path fill-rule="evenodd" d="M-1.5 -1.5L1.5 -1.5L1.5 1.5L-1.5 1.5Z" fill="#000000"/></g></g><g><g transform="translate(25.5,3.5)"><g transform="rotate(90)"><path fill-rule="evenodd" d="M-3.5 -3.5L3.5 -3.5L3.5 3.5L-3.5 3.5ZM-2.5 -2.5L-2.5 2.5L2.5 2.5L2.5 -2.5Z" fill="#000000"/><path fill-rule="evenodd" d="M-1.5 -1.5L1.5 -1.5L1.5 1.5L-1.5 1.5Z" fill="#000000"/></g></g></g><g><g transform="translate(3.5,25.5)"><g transform="rotate(-90)"><path fill-rule="evenodd" d="M-3.5 -3.5L3.5 -3.5L3.5 3.5L-3.5 3.5ZM-2.5 -2.5L-2.5 2.5L2.5 2.5L2.5 -2.5Z" fill="#000000"/><path fill-rule="evenodd" d="M-1.5 -1.5L1.5 -1.5L1.5 1.5L-1.5 1.5Z" fill="#000000"/></g></g></g><path fill-rule="evenodd" d="M13 0L13 1L9 1L9 2L8 2L8 8L9 8L9 9L12 9L12 11L11 11L11 10L8 10L8 9L7 9L7 8L2 8L2 9L3 9L3 10L1 10L1 8L0 8L0 11L1 11L1 13L0 13L0 16L2 16L2 17L0 17L0 21L1 21L1 18L2 18L2 19L3 19L3 18L4 18L4 17L7 17L7 16L8 16L8 17L9 17L9 19L8 19L8 18L5 18L5 19L4 19L4 20L3 20L3 21L4 21L4 20L5 20L5 21L7 21L7 20L8 20L8 22L9 22L9 23L8 23L8 27L9 27L9 25L10 25L10 27L11 27L11 29L13 29L13 26L14 26L14 28L15 28L15 29L18 29L18 28L15 28L15 27L19 27L19 26L16 26L16 24L17 24L17 23L19 23L19 25L20 25L20 26L21 26L21 25L23 25L23 27L24 27L24 25L25 25L25 23L26 23L26 25L29 25L29 23L27 23L27 22L28 22L28 20L29 20L29 19L28 19L28 18L29 18L29 17L27 17L27 18L26 18L26 17L24 17L24 16L25 16L25 15L27 15L27 16L29 16L29 14L28 14L28 13L27 13L27 14L26 14L26 13L24 13L24 12L26 12L26 11L27 11L27 10L28 10L28 9L27 9L27 8L22 8L22 9L24 9L24 10L25 10L25 11L18 11L18 10L17 10L17 9L18 9L18 8L17 8L17 9L16 9L16 8L15 8L15 6L16 6L16 7L17 7L17 6L18 6L18 7L19 7L19 8L20 8L20 9L19 9L19 10L21 10L21 6L20 6L20 7L19 7L19 4L18 4L18 3L17 3L17 4L18 4L18 5L15 5L15 6L14 6L14 8L15 8L15 9L13 9L13 6L12 6L12 8L11 8L11 6L10 6L10 4L11 4L11 3L10 3L10 2L13 2L13 3L14 3L14 4L16 4L16 0L15 0L15 1L14 1L14 0ZM19 0L19 1L17 1L17 2L19 2L19 3L20 3L20 5L21 5L21 3L20 3L20 1L21 1L21 0ZM14 2L14 3L15 3L15 2ZM12 4L12 5L13 5L13 4ZM9 6L9 7L10 7L10 6ZM4 9L4 11L3 11L3 12L2 12L2 13L1 13L1 15L2 15L2 14L3 14L3 15L4 15L4 16L5 16L5 15L6 15L6 16L7 16L7 15L9 15L9 17L10 17L10 19L11 19L11 21L13 21L13 24L12 24L12 26L11 26L11 27L12 27L12 26L13 26L13 25L15 25L15 24L16 24L16 23L17 23L17 22L18 22L18 21L19 21L19 22L20 22L20 20L19 20L19 19L20 19L20 18L21 18L21 19L23 19L23 18L24 18L24 19L25 19L25 20L27 20L27 19L25 19L25 18L24 18L24 17L23 17L23 18L21 18L21 17L22 17L22 16L19 16L19 15L25 15L25 14L24 14L24 13L23 13L23 14L21 14L21 13L22 13L22 12L21 12L21 13L20 13L20 12L19 12L19 13L18 13L18 11L17 11L17 10L16 10L16 9L15 9L15 10L16 10L16 11L14 11L14 12L13 12L13 11L12 11L12 12L10 12L10 11L8 11L8 13L9 13L9 14L7 14L7 13L5 13L5 10L7 10L7 9ZM26 9L26 10L27 10L27 9ZM6 11L6 12L7 12L7 11ZM16 11L16 12L14 12L14 13L16 13L16 14L15 14L15 15L14 15L14 16L15 16L15 17L13 17L13 16L12 16L12 15L13 15L13 12L12 12L12 14L11 14L11 15L10 15L10 14L9 14L9 15L10 15L10 16L12 16L12 17L13 17L13 18L12 18L12 20L14 20L14 21L16 21L16 22L15 22L15 23L14 23L14 24L15 24L15 23L16 23L16 22L17 22L17 21L16 21L16 20L14 20L14 19L19 19L19 17L18 17L18 18L15 18L15 17L16 17L16 16L15 16L15 15L19 15L19 14L17 14L17 13L16 13L16 12L17 12L17 11ZM28 11L28 12L29 12L29 11ZM3 13L3 14L5 14L5 13ZM6 14L6 15L7 15L7 14ZM5 19L5 20L7 20L7 19ZM9 21L9 22L10 22L10 21ZM21 21L21 24L24 24L24 21ZM25 21L25 22L27 22L27 21ZM22 22L22 23L23 23L23 22ZM10 23L10 25L11 25L11 23ZM26 26L26 27L25 27L25 28L24 28L24 29L27 29L27 27L28 27L28 28L29 28L29 27L28 27L28 26ZM8 28L8 29L10 29L10 28ZM19 28L19 29L20 29L20 28ZM21 28L21 29L23 29L23 28Z" fill="#000000"/></g></g></svg>